#!OML:ASF E:\basketball\basketball\Project 1\Capture day 1\Session 1\Subject.ASF
:FULLY-SPECIFIED
:DEGREES
89
root 20.6989 15.2894 -0.736551 34.7389 56.9461 31.098
lowerback 7.98651 -4.135 -9.848
upperback 3.69226 -6.08297 1.80197
thorax 0.656902 -3.20059 7.79698
lowerneck -6.25841 5.11938 -11.7184
upperneck -4.80507 8.0237 12.0679
head -1.345 4.22897 5.5564
rclavicle 3.89618e-014 -1.59028e-014
rhumerus 47.338 42.0415 -30.5965
rradius 123.72
rwrist 11.7707
rhand -6.44388 23.2154
rfingers 7.12502
rthumb 19.4056 -5.83631
lclavicle 3.89618e-014 -1.59028e-014
lhumerus -62.7741 -15.5625 94.1119
lradius 61.9864
lwrist 26.5616
lhand -25.7731 31.594
lfingers 7.12502
lthumb 0.764881 61.5724
rfemur -43.6593 -12.5442 25.161
rtibia 44.6887
rfoot -11.7962 -7.34792
rtoes 28.4594
lfemur 23.7586 20.0329 -8.57667
ltibia 80.577
lfoot 3.41241 11.9139
ltoes -20.6463
90
root 21.1861 15.1217 -0.567167 32.9978 57.3917 28.8686
lowerback 8.38483 -3.45313 -8.79248
upperback 3.58564 -5.13362 2.58162
thorax 0.0997155 -2.68743 8.04088
lowerneck -7.05612 4.68304 -9.63591
upperneck -4.01116 7.19821 9.05279
head -0.715816 3.80002 4.34283
rclavicle -1.59028e-014 9.54166e-015
rhumerus 51.1063 42.0849 -27.0086
rradius 121.752
rwrist 11.4297
rhand -5.37913 22.1294
rfingers 7.12502
rthumb 20.4291 -6.81597
lclavicle -1.59028e-014 9.54166e-015
lhumerus -62.4633 -14.0625 94.3075
lradius 60.7231
lwrist 27.2869
lhand -24.7982 32.9287
lfingers 7.12502
lthumb 1.70649 62.9016
rfemur -43.7589 -11.3925 26.0674
rtibia 48.4322
rfoot -14.1582 -9.96095
rtoes 29.5187
lfemur 21.1229 20.8453 -5.35925
ltibia 86.353
lfoot 2.44233 11.319
ltoes -20.7733
91
root 21.6601 14.9814 -0.398377 29.81 57.9619 25.3357
lowerback 9.02852 -3.02489 -5.83118
upperback 3.58579 -4.37128 2.25284
thorax -0.689885 -2.22609 6.01824
lowerneck -9.06873 4.12919 -4.51621
upperneck -1.81216 5.97506 4.97199
head 0.68072 3.12467 2.54976
rclavicle -1.11319e-014 -1.27222e-014
rhumerus 52.8921 43.1593 -26.9557
rradius 119.372
rwrist 12.6703
rhand -4.65952 21.2996
rfingers 7.12502
rthumb 21.1205 -7.57009
lclavicle -1.11319e-014 -1.27222e-014
lhumerus -62.5382 -12.933 92.261
lradius 60.0186
lwrist 28.3592
lhand -24.3318 34.1376
lfingers 7.12502
lthumb 2.15691 64.1064
rfemur -42.5072 -11.2231 27.7702
rtibia 50.772
rfoot -17.0871 -10.7609
rtoes 30.0838
lfemur 18.786 21.4759 -1.59761
ltibia 91.6357
lfoot 2.36528 9.52184
ltoes -18.8787
92
root 22.1755 15.0307 -0.184437 25.0652 58.5172 20.0794
lowerback 9.77526 -2.37615 -2.57259
upperback 3.80708 -3.22417 2.62542
thorax -1.21405 -1.60699 4.50805
lowerneck -9.10466 3.63037 -4.01549
upperneck -2.34645 5.28754 5.22176
head 0.558426 2.7869 2.51514
rclavicle 2.38542e-014 -6.36111e-015
rhumerus 53.7934 44.0651 -26.724
rradius 117.027
rwrist 13.2926
rhand -3.72596 20.6994
rfingers 7.12502
rthumb 22.0171 -8.06742
lclavicle 2.38542e-014 -6.36111e-015
lhumerus -61.5885 -11.405 90.8077
lradius 59.1055
lwrist 29.1622
lhand -24.2146 35.5386
lfingers 7.12502
lthumb 2.27011 65.5063
rfemur -40.2199 -12.987 30.4758
rtibia 51.5794
rfoot -19.1849 -9.47295
rtoes 26.7322
lfemur 16.3131 22.3388 2.715
ltibia 95.841
lfoot 2.20429 7.39044
ltoes -18.645
93
root 22.7223 15.0946 0.0281052 21.102 58.7379 15.979
lowerback 10.1002 -1.55447 0.70001
upperback 4.40765 -1.82368 2.50679
thorax -1.01853 -0.872371 2.39471
lowerneck -9.70794 2.59819 -4.13077
upperneck -2.93213 3.97992 6.34077
head 0.522915 2.16637 2.8851
rclavicle -4.53229e-014 4.6118e-014
rhumerus 53.2828 44.3338 -27.6261
rradius 114.241
rwrist 12.8631
rhand -2.93999 20.5799
rfingers 7.12502
rthumb 22.7716 -8.09613
lclavicle -4.53229e-014 4.6118e-014
lhumerus -59.8706 -11.0577 89.4563
lradius 58.1642
lwrist 29.6822
lhand -24.9661 36.5982
lfingers 7.12502
lthumb 1.54432 66.5724
rfemur -36.9328 -14.762 31.8151
rtibia 51.5422
rfoot -21.1817 -7.38106
rtoes 25.5401
lfemur 13.8384 23.1193 5.56468
ltibia 99.3043
lfoot 1.85583 5.23656
ltoes -17.612
94
root 23.2045 15.113 0.237794 19.7105 59.3251 14.3994
lowerback 10.5446 -0.720714 1.64528
upperback 4.61487 -0.601559 2.92877
thorax -1.09439 -0.249649 2.17431
lowerneck -10.0455 1.37779 -5.37434
upperneck -3.42651 2.52976 7.69447
head 0.485868 1.48265 3.54751
rclavicle 1.98785e-014 -2.06736e-014
rhumerus 51.7467 45.3704 -27.8903
rradius 111.788
rwrist 11.8984
rhand -2.68401 19.586
rfingers 7.12502
rthumb 23.0172 -9.05962
lclavicle 1.98785e-014 -2.06736e-014
lhumerus -58.1569 -10.5033 89.3494
lradius 57.3384
lwrist 29.9141
lhand -26.4288 36.7872
lfingers 7.12502
lthumb 0.131608 66.7669
rfemur -34.4566 -15.8316 31.97
rtibia 51.302
rfoot -22.49 -6.78427
rtoes 23.7302
lfemur 9.58624 23.3558 6.37906
ltibia 102.797
lfoot 1.40975 3.67733
ltoes -15.7919
95
root 23.675 15.146 0.462116 19.943 59.8438 14.3285
lowerback 10.7603 0.147467 1.66187
upperback 4.53913 0.558362 3.02512
thorax -1.32071 0.326863 2.13309
lowerneck -9.17433 0.374918 -6.38869
upperneck -4.65557 1.35019 9.09717
head 0.0133322 0.904128 4.1864
rclavicle -3.89618e-014 3.81667e-014
rhumerus 50.0794 45.9709 -29.2417
rradius 107.788
rwrist 11.1423
rhand -3.33724 19.2302
rfingers 7.12502
rthumb 22.3903 -9.49224
lclavicle -3.89618e-014 3.81667e-014
lhumerus -56.9733 -10.4017 89.254
lradius 57.031
lwrist 30.156
lhand -27.6031 36.6319
lfingers 7.12502
lthumb -1.00256 66.6093
rfemur -32.5264 -16.9241 31.5389
rtibia 51.2946
rfoot -23.5619 -7.13749
rtoes 19.6254
lfemur 4.31496 23.4747 5.19394
ltibia 105.797
lfoot 0.904518 2.78848
ltoes -15.8312
96
root 24.1499 15.1891 0.687379 21.2038 60.2971 15.6183
lowerback 11.0236 0.978632 1.17458
upperback 4.40971 1.60545 2.76746
thorax -1.63091 0.84178 2.01032
lowerneck -8.8154 -0.719302 -6.16619
upperneck -4.8343 -0.137796 9.50307
head 0.0229384 0.151113 4.24105
rclavicle -1.59028e-014 -6.04305e-014
rhumerus 46.8029 46.9583 -31.7999
rradius 104.078
rwrist 11.3243
rhand -2.03664 19.0857
rfingers 7.12502
rthumb 23.6383 -9.48107
lclavicle -1.59028e-014 -6.04305e-014
lhumerus -56.3596 -10.5047 89.105
lradius 57.4478
lwrist 30.2423
lhand -28.2934 36.4797
lfingers 7.12502
lthumb -1.66932 66.4529
rfemur -30.2838 -17.9019 30.233
rtibia 51.1797
rfoot -24.6064 -7.22057
rtoes 17.5887
lfemur -1.1579 23.0347 2.14753
ltibia 108.086
lfoot 0.253351 2.71354
ltoes -17.754
97
root 24.6317 15.254 0.916958 21.9413 61.0123 16.261
lowerback 11.1589 1.71121 1.14375
upperback 4.25838 2.56709 2.60619
thorax -1.88173 1.31789 1.73434
lowerneck -7.96606 -1.70431 -6.11946
upperneck -5.44713 -1.44563 10.0736
head -0.205457 -0.524908 4.39808
rclavicle 2.78299e-014 -1.11319e-014
rhumerus 43.1784 47.871 -34.8428
rradius 100.038
rwrist 12.4329
rhand -0.142259 17.6273
rfingers 7.12502
rthumb 25.4541 -10.693
lclavicle 2.78299e-014 -1.11319e-014
lhumerus -56.1614 -10.6852 89.1376
lradius 58.518
lwrist 30.1091
lhand -28.4707 36.5185
lfingers 7.12502
lthumb -1.84056 66.4903
rfemur -27.7782 -18.7144 29.3211
rtibia 50.6405
rfoot -25.3304 -7.45999
rtoes 14.727
lfemur -6.62071 22.2179 -0.842647
ltibia 109.64
lfoot -0.288933 2.87498
ltoes -19.138
98
root 25.1106 15.3393 1.16056 21.8505 61.7873 15.5739
lowerback 11.0566 2.41017 1.41146
upperback 3.98622 3.51928 2.70398
thorax -2.12063 1.78824 1.56196
lowerneck -7.30565 -2.56987 -6.26173
upperneck -5.7961 -2.58592 10.7353
head -0.318704 -1.11059 4.63948
rclavicle -7.23576e-014 3.18055e-015
rhumerus 39.2369 48.647 -38.3529
rradius 95.6067
rwrist 14.6245
rhand 0.845306 15.8713
rfingers 7.12502
rthumb 26.3998 -12.3106
lclavicle -7.23576e-014 3.18055e-015
lhumerus -56.2872 -10.6897 89.3692
lradius 59.9329
lwrist 29.7365
lhand -28.2035 36.5576
lfingers 7.12502
lthumb -1.58249 66.5315
rfemur -25.2076 -19.1845 29.215
rtibia 49.41
rfoot -25.5029 -7.60615
rtoes 11.0834
lfemur -12.288 21.4478 -3.22631
ltibia 110.566
lfoot -0.547616 2.95772
ltoes -20.972
99
root 25.587 15.4295 1.41137 21.9088 62.0781 14.7444
lowerback 10.6256 3.14829 1.31699
upperback 3.71655 4.47279 2.75836
thorax -2.19445 2.25703 1.5642
lowerneck -6.93228 -3.24774 -6.41355
upperneck -5.9991 -3.44799 11.7391
head -0.284622 -1.5567 4.5142
rclavicle 1.90833e-014 -2.54444e-014
rhumerus 35.4016 49.2026 -42.2218
rradius 90.6426
rwrist 17.3663
rhand 3.18895 15.0718
rfingers 7.12502
rthumb 28.6411 -12.7531
lclavicle 1.90833e-014 -2.54444e-014
lhumerus -56.5779 -10.4039 89.5801
lradius 61.4434
lwrist 29.2945
lhand -27.921 36.0274
lfingers 7.12502
lthumb -1.30959 66.0031
rfemur -22.7485 -18.9676 29.0814
rtibia 47.708
rfoot -24.8825 -7.5472
rtoes 7.44244
lfemur -17.967 20.7699 -5.99588
ltibia 110.788
lfoot -0.798594 3.39597
ltoes -23.9059
100
root 26.0777 15.5341 1.65866 21.4763 62.2252 14.2475
lowerback 10.5354 3.76873 1.34131
upperback 3.95148 5.28418 2.63635
thorax -1.90316 2.66342 1.34083
lowerneck -6.59626 -3.80131 -6.67041
upperneck -6.36668 -4.13039 12.5593
head -0.351289 -1.9066 4.7974
rclavicle -3.97569e-015 -5.08889e-014
rhumerus 32.1297 49.1035 -46.2712
rradius 85.2751
rwrist 18.8404
rhand 6.73693 14.9372
rfingers 7.12502
rthumb 32.0252 -12.2637
lclavicle -3.97569e-015 -5.08889e-014
lhumerus -56.6319 -10.2374 89.7003
lradius 62.8984
lwrist 29.1319
lhand -27.6311 34.9904
lfingers 7.12502
lthumb -1.02961 64.9676
rfemur -19.1793 -18.8768 28.2911
rtibia 45.6337
rfoot -23.7625 -6.88469
rtoes 4.0248
lfemur -22.15 19.4623 -8.87448
ltibia 110.011
lfoot -1.15172 4.29568
ltoes -26.5532
101
root 26.5744 15.64 1.90615 21.0013 62.2707 13.8232
lowerback 10.549 4.31244 1.31527
upperback 4.13978 5.99164 2.46621
thorax -1.71038 3.01777 1.10376
lowerneck -6.06605 -4.34092 -6.91111
upperneck -6.80892 -4.79514 13.4038
head -0.464429 -2.25931 5.09194
rclavicle 6.75868e-014 -4.77083e-015
rhumerus 29.2947 49.1288 -50.1033
rradius 79.3505
rwrist 20.462
rhand 9.17896 13.8914
rfingers 7.12502
rthumb 34.3472 -12.8146
lclavicle 6.75868e-014 -4.77083e-015
lhumerus -56.939 -10.1197 89.8725
lradius 64.3124
lwrist 29.2826
lhand -27.1973 34.0933
lfingers 7.12502
lthumb -0.610606 64.0722
rfemur -15.4502 -18.6849 27.313
rtibia 43.4142
rfoot -22.2792 -5.64131
rtoes 1.51895
lfemur -25.8916 17.8464 -11.6192
ltibia 108.666
lfoot -1.59961 5.10437
ltoes -26.1928
